<svg width="14" height="14" viewBox="0 0 14 14" fill="none" xmlns="http://www.w3.org/2000/svg">
<g clip-path="url(#clip0_591_164)">
<path d="M5.70577 6.51886C5.99358 6.37409 6.21116 6.21286 6.36026 6.03861C6.62553 5.7248 6.75643 5.3087 6.75643 4.79291C6.75643 4.29099 6.62553 3.86189 6.36373 3.50214C5.92683 2.91613 5.18738 2.61619 4.14193 2.60059H0V11.0552H3.86193C4.2971 11.0552 4.7002 11.0179 5.07295 10.9417C5.44571 10.8645 5.76819 10.7232 6.04125 10.5169C6.28398 10.3374 6.48683 10.1147 6.64807 9.852C6.90293 9.45497 7.03036 9.00506 7.03036 8.50401C7.03036 8.01856 6.91853 7.60506 6.69661 7.26524C6.47209 6.92543 6.14268 6.67663 5.70577 6.51886ZM1.70861 4.06907H3.57413C3.98416 4.06907 4.32224 4.11328 4.5875 4.20084C4.89438 4.32827 5.04782 4.58746 5.04782 4.98276C5.04782 5.33731 4.93079 5.58524 4.69933 5.7248C4.46614 5.86437 4.1636 5.93459 3.79258 5.93459H1.70861V4.06907ZM4.65859 9.43936C4.45227 9.53906 4.16187 9.58847 3.78998 9.58847H1.70861V7.33372H3.81859C4.18614 7.33633 4.47221 7.38487 4.67679 7.47589C5.04088 7.6406 5.22206 7.94227 5.22206 8.38351C5.22206 8.90364 5.03481 9.25385 4.65859 9.43936Z" fill="white"/>
<path d="M12.5362 2.99512H8.86328V4.0475H12.5362V2.99512Z" fill="white"/>
<path d="M13.8123 7.14817C13.736 6.65839 13.5678 6.22755 13.306 5.85566C13.0191 5.43436 12.655 5.12575 12.212 4.9307C11.7708 4.73479 11.2741 4.63683 10.721 4.6377C9.79256 4.6377 9.03838 4.9281 8.45497 5.50458C7.8733 6.08278 7.58203 6.91411 7.58203 7.99771C7.58203 9.15325 7.90364 9.98805 8.55033 10.5004C9.19442 11.0136 9.9382 11.2693 10.7825 11.2693C11.8046 11.2693 12.5995 10.965 13.1673 10.3582C13.5305 9.97505 13.736 9.59796 13.7811 9.2278H12.0889C11.991 9.41071 11.8774 9.55375 11.7474 9.65777C11.5116 9.84849 11.2047 9.94384 10.8285 9.94384C10.4705 9.94384 10.1671 9.86496 9.91392 9.70805C9.49609 9.45666 9.27764 9.01629 9.2499 8.38954H13.8677C13.8747 7.84947 13.8573 7.43424 13.8123 7.14817ZM9.29151 7.31028C9.35219 6.90371 9.49956 6.58123 9.73361 6.34284C9.96767 6.10532 10.2988 5.98569 10.7227 5.98482C11.1137 5.98482 11.4405 6.09665 11.7066 6.32117C11.9693 6.54743 12.1175 6.87597 12.1479 7.31028H9.29151Z" fill="white"/>
</g>
<defs>
<clipPath id="clip0_591_164">
<rect width="13.8689" height="13.8689" fill="white"/>
</clipPath>
</defs>
</svg>
