<svg width="15" height="15" viewBox="0 0 15 15" fill="none" xmlns="http://www.w3.org/2000/svg">
<g clip-path="url(#clip0_591_173)">
<path d="M13.6044 3.63119C12.9524 2.51419 12.068 1.6298 10.9509 0.977833C9.83373 0.3259 8.61412 0 7.2912 0C5.96841 0 4.74844 0.3259 3.63142 0.977833C2.51433 1.6297 1.62993 2.51409 0.977933 3.63119C0.3259 4.74834 0 5.96831 0 7.291C0 8.61375 0.326 9.83353 0.977833 10.9508C1.6298 12.0677 2.51419 12.9521 3.63129 13.6042C4.74844 14.2561 5.96831 14.582 7.29107 14.582C8.61382 14.582 9.83383 14.2561 10.9509 13.6042C12.0679 12.9524 12.9523 12.0677 13.6042 10.9508C14.2561 9.83363 14.5819 8.61369 14.5819 7.291C14.582 5.96818 14.2561 4.74818 13.6044 3.63119ZM7.2911 1.06329C8.86061 1.06329 10.2309 1.58225 11.4017 2.62013L11.283 2.78616C11.2356 2.85273 11.1169 2.98075 10.9271 3.17072C10.7373 3.36052 10.53 3.54101 10.3053 3.71185C10.0805 3.88277 9.7753 4.07736 9.38908 4.29572C9.003 4.51409 8.59164 4.70565 8.15488 4.87018C7.4271 3.52831 6.64871 2.31947 5.81958 1.24361C6.31965 1.12338 6.81012 1.06329 7.2911 1.06329ZM2.41155 3.42692C3.01909 2.66127 3.75947 2.07258 4.63296 1.66126C5.41773 2.70552 6.1898 3.90179 6.94934 5.24981C5.02533 5.75614 3.1077 6.00931 1.19633 6.00921C1.39897 5.05359 1.804 4.19274 2.41155 3.42692ZM1.48103 9.53639C1.20251 8.8244 1.06329 8.07587 1.06329 7.291C1.06329 7.20235 1.06655 7.13588 1.0728 7.09162C3.36401 7.09162 5.49378 6.79741 7.46208 6.20869C7.66465 6.60106 7.83237 6.95233 7.96528 7.26254C7.93964 7.27517 7.89881 7.28934 7.84182 7.3052C7.78466 7.32103 7.74362 7.332 7.71809 7.33842L7.36691 7.46182C7.12631 7.55046 6.81135 7.70239 6.42227 7.91746C6.03309 8.13287 5.62014 8.38904 5.18341 8.68658C4.74668 8.98414 4.29572 9.37811 3.8306 9.86877C3.3654 10.3592 2.9746 10.886 2.65814 11.4492C2.15182 10.886 1.75948 10.2482 1.48103 9.53639ZM7.2911 13.5188C5.81007 13.5188 4.48732 13.0441 3.32274 12.0948L3.46516 12.1993C3.68665 11.7118 4.01255 11.2434 4.44303 10.7942C4.87344 10.3449 5.28795 9.98239 5.68667 9.707C6.08539 9.43188 6.5189 9.17242 6.98731 8.92845C7.45563 8.68495 7.77508 8.52973 7.94613 8.46349C8.11704 8.39705 8.25314 8.34471 8.35439 8.30667L8.37328 8.29713H8.3924C9.01244 9.92367 9.45569 11.4997 9.7214 13.025C8.93659 13.3543 8.12662 13.5187 7.2911 13.5188ZM12.5318 10.6565C12.0634 11.3812 11.4778 11.981 10.7755 12.4555C10.5158 10.9999 10.111 9.51557 9.5602 8.00305C10.8197 7.80664 12.1139 7.89858 13.443 8.27818C13.3037 9.13893 12.9999 9.93185 12.5318 10.6565ZM13.4239 7.20558C13.3606 7.19301 13.2814 7.17864 13.1865 7.16292C13.0916 7.14719 12.976 7.1281 12.8399 7.10596C12.704 7.08381 12.5519 7.06329 12.3843 7.04427C12.2165 7.02529 12.0378 7.00793 11.8477 6.9921C11.6579 6.97621 11.4554 6.96367 11.2403 6.95409C11.0249 6.94465 10.8066 6.93986 10.5851 6.93986C10.3638 6.93986 10.131 6.94628 9.88743 6.95885C9.64383 6.97132 9.40814 6.99373 9.18033 7.02532C9.16121 6.99363 9.13753 6.94139 9.10907 6.86857C9.08064 6.79585 9.05989 6.74039 9.04762 6.70241C8.92722 6.4366 8.78793 6.13594 8.62955 5.80059C9.06628 5.62326 9.48252 5.41923 9.87832 5.18816C10.2737 4.9571 10.59 4.75154 10.8275 4.57118C11.0648 4.39062 11.2895 4.19916 11.5015 3.99669C11.7136 3.79419 11.851 3.65343 11.9146 3.57429C11.9779 3.49502 12.038 3.41754 12.0949 3.3417L12.1045 3.33212C13.0284 4.45869 13.5002 5.75607 13.5189 7.22453L13.4239 7.20558Z" fill="white"/>
</g>
<defs>
<clipPath id="clip0_591_173">
<rect width="14.582" height="14.582" fill="white"/>
</clipPath>
</defs>
</svg>
