<svg width="40" height="40" viewBox="0 0 40 40" fill="none" xmlns="http://www.w3.org/2000/svg">
<g clip-path="url(#clip0_591_172)">
<path d="M26.6044 16.6312C25.9524 15.5142 25.068 14.6298 23.9509 13.9778C22.8337 13.3259 21.6141 13 20.2912 13C18.9684 13 17.7484 13.3259 16.6314 13.9778C15.5143 14.6297 14.6299 15.5141 13.9779 16.6312C13.3259 17.7483 13 18.9683 13 20.291C13 21.6138 13.326 22.8335 13.9778 23.9508C14.6298 25.0677 15.5142 25.9521 16.6313 26.6042C17.7484 27.2561 18.9683 27.582 20.2911 27.582C21.6138 27.582 22.8338 27.2561 23.9509 26.6042C25.0679 25.9524 25.9523 25.0677 26.6042 23.9508C27.2561 22.8336 27.5819 21.6137 27.5819 20.291C27.582 18.9682 27.2561 17.7482 26.6044 16.6312ZM20.2911 14.0633C21.8606 14.0633 23.2309 14.5822 24.4017 15.6201L24.283 15.7862C24.2356 15.8527 24.1169 15.9807 23.9271 16.1707C23.7373 16.3605 23.53 16.541 23.3053 16.7119C23.0805 16.8828 22.7753 17.0774 22.3891 17.2957C22.003 17.5141 21.5916 17.7056 21.1549 17.8702C20.4271 16.5283 19.6487 15.3195 18.8196 14.2436C19.3197 14.1234 19.8101 14.0633 20.2911 14.0633ZM15.4115 16.4269C16.0191 15.6613 16.7595 15.0726 17.633 14.6613C18.4177 15.7055 19.1898 16.9018 19.9493 18.2498C18.0253 18.7561 16.1077 19.0093 14.1963 19.0092C14.399 18.0536 14.804 17.1927 15.4115 16.4269ZM14.481 22.5364C14.2025 21.8244 14.0633 21.0759 14.0633 20.291C14.0633 20.2024 14.0665 20.1359 14.0728 20.0916C16.364 20.0916 18.4938 19.7974 20.4621 19.2087C20.6647 19.6011 20.8324 19.9523 20.9653 20.2625C20.9396 20.2752 20.8988 20.2893 20.8418 20.3052C20.7847 20.321 20.7436 20.332 20.7181 20.3384L20.3669 20.4618C20.1263 20.5505 19.8113 20.7024 19.4223 20.9175C19.0331 21.1329 18.6201 21.389 18.1834 21.6866C17.7467 21.9841 17.2957 22.3781 16.8306 22.8688C16.3654 23.3592 15.9746 23.886 15.6581 24.4492C15.1518 23.886 14.7595 23.2482 14.481 22.5364ZM20.2911 26.5188C18.8101 26.5188 17.4873 26.0441 16.3227 25.0948L16.4652 25.1993C16.6866 24.7118 17.0125 24.2434 17.443 23.7942C17.8734 23.3449 18.288 22.9824 18.6867 22.707C19.0854 22.4319 19.5189 22.1724 19.9873 21.9284C20.4556 21.6849 20.7751 21.5297 20.9461 21.4635C21.117 21.3971 21.2531 21.3447 21.3544 21.3067L21.3733 21.2971H21.3924C22.0124 22.9237 22.4557 24.4997 22.7214 26.025C21.9366 26.3542 21.1266 26.5187 20.2911 26.5188ZM25.5318 23.6565C25.0634 24.3812 24.4778 24.981 23.7755 25.4555C23.5158 23.9999 23.111 22.5156 22.5602 21.0031C23.8197 20.8066 25.1139 20.8986 26.443 21.2782C26.3037 22.1389 25.9999 22.9319 25.5318 23.6565ZM26.4239 20.2056C26.3606 20.193 26.2814 20.1786 26.1865 20.1629C26.0916 20.1472 25.976 20.1281 25.8399 20.106C25.704 20.0838 25.5519 20.0633 25.3843 20.0443C25.2165 20.0253 25.0378 20.0079 24.8477 19.9921C24.6579 19.9762 24.4554 19.9637 24.2403 19.9541C24.0249 19.9447 23.8066 19.9399 23.5851 19.9399C23.3638 19.9399 23.131 19.9463 22.8874 19.9588C22.6438 19.9713 22.4081 19.9937 22.1803 20.0253C22.1612 19.9936 22.1375 19.9414 22.1091 19.8686C22.0806 19.7959 22.0599 19.7404 22.0476 19.7024C21.9272 19.4366 21.7879 19.1359 21.6295 18.8006C22.0663 18.6233 22.4825 18.4192 22.8783 18.1882C23.2737 17.9571 23.59 17.7515 23.8275 17.5712C24.0648 17.3906 24.2895 17.1992 24.5015 16.9967C24.7136 16.7942 24.851 16.6534 24.9146 16.5743C24.9779 16.495 25.038 16.4175 25.0949 16.3417L25.1045 16.3321C26.0284 17.4587 26.5002 18.7561 26.5189 20.2245L26.4239 20.2056Z" fill="white"/>
</g>
<circle cx="19.6475" cy="19.6475" r="19.3586" stroke="white" stroke-opacity="0.3" stroke-width="0.577869"/>
<defs>
<clipPath id="clip0_591_172">
<rect width="14.582" height="14.582" fill="white" transform="translate(13 13)"/>
</clipPath>
</defs>
</svg>
