<svg width="40" height="40" viewBox="0 0 40 40" fill="none" xmlns="http://www.w3.org/2000/svg">
<g clip-path="url(#clip0_591_163)">
<path d="M18.7058 19.5189C18.9936 19.3741 19.2112 19.2129 19.3603 19.0386C19.6255 18.7248 19.7564 18.3087 19.7564 17.7929C19.7564 17.291 19.6255 16.8619 19.3637 16.5021C18.9268 15.9161 18.1874 15.6162 17.1419 15.6006H13V24.0552H16.8619C17.2971 24.0552 17.7002 24.0179 18.073 23.9417C18.4457 23.8645 18.7682 23.7232 19.0413 23.5169C19.284 23.3374 19.4868 23.1147 19.6481 22.852C19.9029 22.455 20.0304 22.0051 20.0304 21.504C20.0304 21.0186 19.9185 20.6051 19.6966 20.2652C19.4721 19.9254 19.1427 19.6766 18.7058 19.5189ZM14.7086 17.0691H16.5741C16.9842 17.0691 17.3222 17.1133 17.5875 17.2008C17.8944 17.3283 18.0478 17.5875 18.0478 17.9828C18.0478 18.3373 17.9308 18.5852 17.6993 18.7248C17.4661 18.8644 17.1636 18.9346 16.7926 18.9346H14.7086V17.0691ZM17.6586 22.4394C17.4523 22.5391 17.1619 22.5885 16.79 22.5885H14.7086V20.3337H16.8186C17.1861 20.3363 17.4722 20.3849 17.6768 20.4759C18.0409 20.6406 18.2221 20.9423 18.2221 21.3835C18.2221 21.9036 18.0348 22.2539 17.6586 22.4394Z" fill="white"/>
<path d="M25.5362 15.9951H21.8633V17.0475H25.5362V15.9951Z" fill="white"/>
<path d="M26.8123 20.1482C26.736 19.6584 26.5678 19.2275 26.306 18.8557C26.0191 18.4344 25.655 18.1258 25.212 17.9307C24.7708 17.7348 24.2741 17.6368 23.721 17.6377C22.7926 17.6377 22.0384 17.9281 21.455 18.5046C20.8733 19.0828 20.582 19.9141 20.582 20.9977C20.582 22.1533 20.9036 22.9881 21.5503 23.5004C22.1944 24.0136 22.9382 24.2693 23.7825 24.2693C24.8046 24.2693 25.5995 23.965 26.1673 23.3582C26.5305 22.975 26.736 22.598 26.7811 22.2278H25.0889C24.991 22.4107 24.8774 22.5537 24.7474 22.6578C24.5116 22.8485 24.2047 22.9438 23.8285 22.9438C23.4705 22.9438 23.1671 22.865 22.9139 22.7081C22.4961 22.4567 22.2776 22.0163 22.2499 21.3895H26.8677C26.8747 20.8495 26.8573 20.4342 26.8123 20.1482ZM22.2915 20.3103C22.3522 19.9037 22.4996 19.5812 22.7336 19.3428C22.9677 19.1053 23.2988 18.9857 23.7227 18.9848C24.1137 18.9848 24.4405 19.0967 24.7066 19.3212C24.9693 19.5474 25.1175 19.876 25.1479 20.3103H22.2915Z" fill="white"/>
</g>
<circle cx="19.6475" cy="19.6475" r="19.3586" stroke="white" stroke-opacity="0.3" stroke-width="0.577869"/>
<defs>
<clipPath id="clip0_591_163">
<rect width="13.8689" height="13.8689" fill="white" transform="translate(13 13)"/>
</clipPath>
</defs>
</svg>
