<svg width="40" height="40" viewBox="0 0 40 40" fill="none" xmlns="http://www.w3.org/2000/svg">
<g clip-path="url(#clip0_591_157)">
<path d="M25.9869 17.822C25.9564 17.1313 25.8447 16.6564 25.6847 16.2449C25.5197 15.8081 25.2657 15.4171 24.933 15.092C24.6079 14.7619 24.2143 14.5053 23.7825 14.3428C23.3687 14.1828 22.8963 14.0711 22.2055 14.0407C21.5096 14.0076 21.2887 14 19.5237 14C17.7587 14 17.5378 14.0076 16.8445 14.0381C16.1538 14.0685 15.6789 14.1803 15.2675 14.3403C14.8306 14.5053 14.4396 14.7593 14.1145 15.092C13.7843 15.4171 13.5279 15.8107 13.3653 16.2425C13.2053 16.6564 13.0936 17.1287 13.0631 17.8195C13.0301 18.5154 13.0225 18.7363 13.0225 20.5013C13.0225 22.2663 13.0301 22.4872 13.0606 23.1805C13.091 23.8712 13.2028 24.3461 13.3628 24.7576C13.5279 25.1944 13.7843 25.5854 14.1145 25.9105C14.4396 26.2407 14.8332 26.4972 15.2649 26.6597C15.6789 26.8197 16.1512 26.9314 16.842 26.9619C17.5352 26.9924 17.7563 27 19.5212 27C21.2862 27 21.5072 26.9924 22.2005 26.9619C22.8912 26.9314 23.3661 26.8197 23.7775 26.6597C24.6512 26.3219 25.3419 25.6312 25.6797 24.7576C25.8396 24.3436 25.9514 23.8712 25.9818 23.1805C26.0123 22.4872 26.0199 22.2663 26.0199 20.5013C26.0199 18.7363 26.0174 18.5154 25.9869 17.822ZM24.8162 23.1297C24.7883 23.7646 24.6816 24.1074 24.5927 24.336C24.3743 24.9023 23.9248 25.3518 23.3585 25.5703C23.1299 25.6592 22.7846 25.7658 22.1522 25.7937C21.4665 25.8242 21.2608 25.8318 19.5263 25.8318C17.7918 25.8318 17.5835 25.8242 16.9003 25.7937C16.2655 25.7658 15.9226 25.6592 15.6941 25.5703C15.4122 25.4661 15.1557 25.301 14.9475 25.0852C14.7316 24.8744 14.5665 24.6204 14.4624 24.3386C14.3735 24.11 14.2668 23.7646 14.239 23.1323C14.2084 22.4466 14.2009 22.2409 14.2009 20.5063C14.2009 18.7718 14.2084 18.5636 14.239 17.8805C14.2668 17.2456 14.3735 16.9027 14.4624 16.6742C14.5665 16.3922 14.7316 16.1358 14.95 15.9275C15.1607 15.7116 15.4147 15.5466 15.6966 15.4425C15.9252 15.3536 16.2706 15.247 16.9029 15.219C17.5886 15.1885 17.7943 15.1809 19.5288 15.1809C21.2659 15.1809 21.4715 15.1885 22.1548 15.219C22.7896 15.247 23.1325 15.3536 23.361 15.4425C23.6429 15.5466 23.8994 15.7116 24.1076 15.9275C24.3235 16.1383 24.4886 16.3922 24.5927 16.6742C24.6816 16.9027 24.7883 17.2481 24.8162 17.8805C24.8467 18.5661 24.8543 18.7718 24.8543 20.5063C24.8543 22.2409 24.8467 22.444 24.8162 23.1297Z" fill="#FF5C66"/>
<path d="M19.5241 17.1616C17.6804 17.1616 16.1846 18.6574 16.1846 20.5011C16.1846 22.3449 17.6804 23.8407 19.5241 23.8407C21.3678 23.8407 22.8636 22.3449 22.8636 20.5011C22.8636 18.6574 21.3678 17.1616 19.5241 17.1616ZM19.5241 22.6674C18.328 22.6674 17.3578 21.6973 17.3578 20.5011C17.3578 19.305 18.328 18.3349 19.5241 18.3349C20.7203 18.3349 21.6904 19.305 21.6904 20.5011C21.6904 21.6973 20.7203 22.6674 19.5241 22.6674Z" fill="#FF5C66"/>
<path d="M23.7752 17.0296C23.7752 17.4602 23.4261 17.8093 22.9954 17.8093C22.5649 17.8093 22.2158 17.4602 22.2158 17.0296C22.2158 16.599 22.5649 16.25 22.9954 16.25C23.4261 16.25 23.7752 16.599 23.7752 17.0296Z" fill="#FF5C66"/>
</g>
<circle cx="19.6475" cy="19.6475" r="19.3586" stroke="#FF5C66" stroke-width="0.577869"/>
<defs>
<clipPath id="clip0_591_157">
<rect width="13" height="13" fill="white" transform="translate(13 14)"/>
</clipPath>
</defs>
</svg>
