<svg width="13" height="13" viewBox="0 0 13 13" fill="none" xmlns="http://www.w3.org/2000/svg">
<g clip-path="url(#clip0_591_158)">
<path d="M12.9869 3.82204C12.9564 3.1313 12.8447 2.65642 12.6847 2.24493C12.5197 1.80815 12.2657 1.41709 11.933 1.09201C11.6079 0.761868 11.2143 0.505333 10.7825 0.34284C10.3687 0.182828 9.89628 0.0711275 9.20554 0.0406726C8.50964 0.00763851 8.28872 0 6.52373 0C4.75874 0 4.53781 0.00763851 3.8445 0.0380934C3.15376 0.0685483 2.67888 0.180348 2.26749 0.340261C1.83061 0.505333 1.43955 0.759288 1.11447 1.09201C0.784328 1.41709 0.527892 1.81073 0.365301 2.24245C0.205289 2.65642 0.0935884 3.12872 0.0631335 3.81946C0.0300994 4.51536 0.0224609 4.73628 0.0224609 6.50127C0.0224609 8.26626 0.0300994 8.48719 0.0605543 9.1805C0.0910092 9.87124 0.202809 10.3461 0.362821 10.7576C0.527892 11.1944 0.784328 11.5854 1.11447 11.9105C1.43955 12.2407 1.83319 12.4972 2.26491 12.6597C2.67888 12.8197 3.15118 12.9314 3.84202 12.9619C4.53524 12.9924 4.75626 13 6.52125 13C8.28624 13 8.50716 12.9924 9.20048 12.9619C9.89122 12.9314 10.3661 12.8197 10.7775 12.6597C11.6512 12.3219 12.3419 11.6312 12.6797 10.7576C12.8396 10.3436 12.9514 9.87124 12.9818 9.1805C13.0123 8.48719 13.0199 8.26626 13.0199 6.50127C13.0199 4.73628 13.0174 4.51536 12.9869 3.82204ZM11.8162 9.12971C11.7883 9.7646 11.6816 10.1074 11.5927 10.336C11.3743 10.9023 10.9248 11.3518 10.3585 11.5703C10.1299 11.6592 9.78458 11.7658 9.15217 11.7937C8.46649 11.8242 8.26085 11.8318 6.52631 11.8318C4.79177 11.8318 4.58355 11.8242 3.90035 11.7937C3.26546 11.7658 2.92262 11.6592 2.69406 11.5703C2.41222 11.4661 2.15569 11.301 1.94747 11.0852C1.7316 10.8744 1.56653 10.6204 1.46237 10.3386C1.37349 10.11 1.26684 9.7646 1.23897 9.13229C1.20841 8.44661 1.20088 8.24087 1.20088 6.50633C1.20088 4.77179 1.20841 4.56357 1.23897 3.88047C1.26684 3.24558 1.37349 2.90274 1.46237 2.67418C1.56653 2.39224 1.7316 2.13581 1.95004 1.92749C2.16075 1.71162 2.4147 1.54655 2.69664 1.44249C2.9252 1.3536 3.27062 1.24696 3.90293 1.21899C4.58861 1.18853 4.79435 1.18089 6.52879 1.18089C8.26591 1.18089 8.47155 1.18853 9.15475 1.21899C9.78964 1.24696 10.1325 1.3536 10.361 1.44249C10.6429 1.54655 10.8994 1.71162 11.1076 1.92749C11.3235 2.13829 11.4886 2.39224 11.5927 2.67418C11.6816 2.90274 11.7883 3.24806 11.8162 3.88047C11.8467 4.56615 11.8543 4.77179 11.8543 6.50633C11.8543 8.24087 11.8467 8.44403 11.8162 9.12971Z" fill="white"/>
<path d="M6.52409 3.16162C4.68043 3.16162 3.18457 4.65738 3.18457 6.50114C3.18457 8.3449 4.68043 9.84066 6.52409 9.84066C8.36785 9.84066 9.86361 8.3449 9.86361 6.50114C9.86361 4.65738 8.36785 3.16162 6.52409 3.16162ZM6.52409 8.6674C5.32802 8.6674 4.35783 7.69731 4.35783 6.50114C4.35783 5.30497 5.32802 4.33488 6.52409 4.33488C7.72026 4.33488 8.69035 5.30497 8.69035 6.50114C8.69035 7.69731 7.72026 8.6674 6.52409 8.6674V8.6674Z" fill="white"/>
<path d="M10.7752 3.02963C10.7752 3.46016 10.4261 3.80925 9.99545 3.80925C9.56491 3.80925 9.21582 3.46016 9.21582 3.02963C9.21582 2.59899 9.56491 2.25 9.99545 2.25C10.4261 2.25 10.7752 2.59899 10.7752 3.02963V3.02963Z" fill="white"/>
</g>
<defs>
<clipPath id="clip0_591_158">
<rect width="13" height="13" fill="white"/>
</clipPath>
</defs>
</svg>
