<svg width="63" height="41" viewBox="0 0 63 41" fill="none" xmlns="http://www.w3.org/2000/svg">
<path d="M8.92432 2.8824C8.76117 3.35235 8.75337 3.8418 8.72477 4.3163C8.60452 6.31375 8.80017 8.27025 9.54507 10.1514C10.3992 12.3074 11.809 14.0163 13.6732 15.3702C15.581 16.756 17.737 17.5854 19.973 18.2673C22.1837 18.9413 24.2156 19.9599 25.8906 21.6037C27.5683 23.2502 28.5069 25.2652 28.8923 27.559C29.0444 28.4644 29.1055 29.3783 29.1075 30.2968C29.1075 30.4066 29.1094 30.5185 29.0919 30.6257C29.0327 30.9858 28.7591 31.2159 28.4373 31.1873C28.1247 31.1593 27.9102 30.9202 27.9089 30.5497C27.9069 29.7787 27.8621 29.0117 27.7743 28.246C27.3752 24.7666 25.5767 22.2518 22.5171 20.6034C21.2828 19.9384 19.9607 19.5062 18.6288 19.0869C15.7929 18.1951 13.1961 16.8776 11.1018 14.7053C9.19862 12.7306 8.07022 10.3704 7.66787 7.669C7.32792 5.3901 7.48327 3.1346 8.11702 0.915503C8.13067 0.868703 8.14757 0.822553 8.15992 0.775102C8.24052 0.454653 8.43682 0.244703 8.77157 0.241453C9.07967 0.238203 9.25322 0.452053 9.34877 0.725053C9.61332 1.4771 9.96237 2.1908 10.3309 2.8954C10.4954 3.20935 10.6709 3.51745 10.8431 3.8275C11.2377 4.5399 11.9319 4.8233 12.6488 5.0508C13.9625 5.46745 15.3249 5.6098 16.6912 5.7164C18.777 5.8802 20.8681 5.8464 22.9578 5.8789C24.5776 5.9036 26.033 6.5224 27.4142 7.31735C28.659 8.0343 29.7939 8.90205 30.8339 9.89395C30.9489 10.0038 31.0828 10.0942 31.1888 10.2112C31.3532 10.3932 31.4754 10.3568 31.6412 10.1982C32.7039 9.18155 33.8388 8.2566 35.0985 7.4896C36.8139 6.44505 38.6326 5.79505 40.6814 5.86135C42.5508 5.9218 44.4221 5.8568 46.287 5.70795C47.676 5.5968 49.0592 5.4317 50.3911 4.9767C51.1919 4.7037 51.7918 4.2422 52.1831 3.4635C52.6446 2.5457 53.1367 1.64415 53.4708 0.669153C53.565 0.394203 53.7581 0.236903 54.0441 0.239503C54.3535 0.242103 54.5296 0.446203 54.6232 0.721153C54.9274 1.61685 55.0964 2.5444 55.203 3.47975C55.4428 5.5799 55.3161 7.6547 54.6797 9.68205C53.6398 12.9951 51.5103 15.4222 48.5581 17.1714C46.9487 18.1249 45.2177 18.7879 43.4309 19.3248C41.5537 19.889 39.7915 20.6859 38.2783 21.9677C36.4044 23.555 35.4008 25.6045 35.0608 28.0069C34.9497 28.794 34.8938 29.5863 34.912 30.3826C34.9139 30.4677 34.9152 30.5548 34.9048 30.6394C34.8652 30.9643 34.6279 31.188 34.3237 31.1925C34 31.1977 33.7316 30.9728 33.7231 30.6251C33.6471 27.4472 34.2938 24.4995 36.4882 22.0529C37.9546 20.4175 39.8039 19.3755 41.8306 18.6105C43.2027 18.0924 44.6366 17.7557 45.9815 17.1545C48.5678 15.9981 50.8136 14.4264 52.3424 11.9792C53.3453 10.3743 53.8848 8.6141 54.0571 6.72975C54.1637 5.5656 54.1168 4.4112 53.9719 3.2568C53.9569 3.1372 53.9687 3.01045 53.8478 2.872C53.6651 3.1996 53.4649 3.50055 53.3219 3.82685C52.757 5.11775 51.7275 5.82495 50.421 6.2117C49.041 6.62055 47.6227 6.78955 46.1953 6.9007C44.1095 7.0632 42.0184 7.03265 39.9287 7.06125C38.433 7.08205 37.0986 7.67095 35.8356 8.4282C34.4108 9.2823 33.1453 10.3353 31.9922 11.5274C31.5385 11.9961 31.2843 11.998 30.8293 11.5333C29.452 10.1273 27.9394 8.8975 26.1812 7.99205C25.0586 7.4142 23.8795 7.0411 22.5997 7.04955C20.9123 7.06125 19.2249 7.0697 17.5401 6.9657C15.8319 6.85975 14.1269 6.7187 12.4714 6.23315C11.2013 5.8607 10.1359 5.2393 9.56782 3.96725C9.44367 3.68905 9.28312 3.42645 9.13427 3.15995C9.08357 3.067 9.06862 2.9461 8.92432 2.8824Z" fill="#1C1D28"/>
<path d="M40.4534 32.094C40.4541 30.3085 40.4528 28.5236 40.4547 26.738C40.4554 26.1329 40.638 25.9554 41.2471 25.9574C44.6446 25.9678 47.7497 28.6659 48.2664 32.0583C48.8872 36.1325 46.306 39.751 42.2461 40.4979C38.2194 41.2382 34.1796 38.2086 33.774 34.1428C33.7513 33.9121 33.7188 33.6813 33.7168 33.4499C33.7129 32.9754 33.9482 32.6764 34.3083 32.6719C34.6821 32.6667 34.9011 32.9403 34.9141 33.4285C34.9869 36.1318 36.8791 38.5141 39.4888 39.1868C43.0749 40.1118 46.6369 37.7113 47.1237 34.0401C47.5495 30.8291 45.2303 27.7104 42.0791 27.2242C41.6923 27.1644 41.6527 27.2957 41.6533 27.6136C41.6611 30.8174 41.6585 34.0213 41.6592 37.2245C41.6592 37.359 41.665 37.4942 41.654 37.6281C41.6202 38.0305 41.3868 38.2599 41.0287 38.2515C40.6601 38.243 40.4567 38.0233 40.4554 37.5956C40.4508 35.7626 40.4528 33.9283 40.4534 32.094Z" fill="#1C1D28"/>
<path d="M15.0288 36.2657C14.7837 36.6798 14.5764 37.1055 14.2995 37.4916C12.5055 39.9967 9.43226 41.1277 6.46956 40.3646C3.54521 39.6113 1.38396 37.1081 1.04011 34.074C1.01281 33.8315 0.984211 33.5871 0.988761 33.344C0.996561 32.9534 1.25006 32.6778 1.57506 32.6713C1.92996 32.6641 2.16071 32.9241 2.18346 33.3492C2.30696 35.7061 3.36971 37.4942 5.43216 38.6616C8.95321 40.6539 13.6638 38.3971 14.3333 34.4061C14.3879 34.0792 14.41 33.7516 14.4262 33.422C14.4496 32.9482 14.6609 32.6914 15.0197 32.6771C15.3811 32.6628 15.6183 32.8871 15.6437 33.3817C15.6905 34.2852 15.8673 35.1491 16.2709 35.9622C17.5137 38.4666 20.0916 39.5976 22.3848 39.3604C25.1194 39.0776 27.3573 37.0028 27.8156 34.23C27.863 33.9414 27.8845 33.6476 27.9027 33.3551C27.9293 32.9261 28.149 32.6687 28.5052 32.6706C28.8426 32.6726 29.1136 32.9657 29.1019 33.3726C29.0792 34.1578 28.9531 34.928 28.6905 35.6723C27.5829 38.8072 24.5721 40.8365 21.2597 40.5752C18.5784 40.3633 16.5764 39.0178 15.2725 36.6538C15.203 36.529 15.1718 36.3788 15.0288 36.2657Z" fill="#1C1D28"/>
<path d="M54.3221 40.6C52.2934 40.5278 50.2986 39.5704 48.8127 37.6035C48.6762 37.4228 48.5709 37.2349 48.6066 36.9977C48.643 36.7585 48.773 36.5973 49.0064 36.5219C49.2917 36.4296 49.516 36.5342 49.6824 36.7572C50.034 37.2297 50.413 37.675 50.8842 38.0338C52.7426 39.4488 54.7907 39.8161 56.9604 38.947C59.2101 38.0461 60.4854 36.3236 60.7993 33.9089C60.826 33.7035 60.8416 33.4961 60.8572 33.2894C60.8851 32.9176 61.1165 32.6739 61.4493 32.6706C61.762 32.6674 62.0369 32.928 62.0493 33.292C62.0649 33.7685 61.9979 34.243 61.9063 34.7103C61.2355 38.1079 58.2078 40.5935 54.3221 40.6Z" fill="#1C1D28"/>
</svg>
