<svg width="65" height="65" viewBox="0 0 65 65" fill="none" xmlns="http://www.w3.org/2000/svg">
<path d="M9.92432 14.8822C9.76117 15.3521 9.75337 15.8416 9.72477 16.3161C9.60452 18.3135 9.80017 20.27 10.5451 22.1511C11.3992 24.3072 12.809 26.016 14.6732 27.37C16.581 28.7558 18.737 29.5852 20.973 30.267C23.1837 30.9411 25.2156 31.9596 26.8906 33.6035C28.5683 35.2499 29.5069 37.2649 29.8923 39.5588C30.0444 40.4642 30.1055 41.3781 30.1075 42.2966C30.1075 42.4064 30.1094 42.5182 30.0919 42.6255C30.0327 42.9856 29.7591 43.2157 29.4373 43.1871C29.1247 43.1591 28.9102 42.9199 28.9089 42.5494C28.9069 41.7785 28.8621 41.0115 28.7743 40.2458C28.3752 36.7664 26.5767 34.2515 23.5171 32.6031C22.2828 31.9382 20.9607 31.5059 19.6288 31.0867C16.7929 30.1949 14.1961 28.8773 12.1018 26.705C10.1986 24.7303 9.07022 22.3702 8.66787 19.6688C8.32792 17.3899 8.48327 15.1344 9.11702 12.9153C9.13067 12.8685 9.14757 12.8223 9.15992 12.7749C9.24052 12.4544 9.43682 12.2445 9.77157 12.2412C10.0797 12.238 10.2532 12.4518 10.3488 12.7248C10.6133 13.4769 10.9624 14.1906 11.3309 14.8952C11.4954 15.2091 11.6709 15.5172 11.8431 15.8273C12.2377 16.5397 12.9319 16.8231 13.6488 17.0506C14.9625 17.4672 16.3249 17.6096 17.6912 17.7162C19.777 17.88 21.8681 17.8462 23.9578 17.8787C25.5776 17.9034 27.033 18.5222 28.4142 19.3171C29.659 20.0341 30.7939 20.9018 31.8339 21.8937C31.9489 22.0036 32.0828 22.0939 32.1888 22.2109C32.3532 22.3929 32.4754 22.3565 32.6412 22.1979C33.7039 21.1813 34.8388 20.2564 36.0985 19.4894C37.8139 18.4448 39.6326 17.7948 41.6814 17.8611C43.5508 17.9216 45.4221 17.8566 47.287 17.7077C48.676 17.5966 50.0592 17.4315 51.3911 16.9765C52.1919 16.7035 52.7918 16.242 53.1831 15.4633C53.6446 14.5455 54.1367 13.6439 54.4708 12.6689C54.565 12.394 54.7581 12.2367 55.0441 12.2393C55.3535 12.2419 55.5296 12.446 55.6232 12.7209C55.9274 13.6166 56.0964 14.5442 56.203 15.4795C56.4428 17.5797 56.3161 19.6545 55.6797 21.6818C54.6398 24.9949 52.5103 27.422 49.5581 29.1711C47.9487 30.1247 46.2177 30.7877 44.4309 31.3246C42.5537 31.8888 40.7915 32.6857 39.2783 33.9675C37.4044 35.5548 36.4008 37.6042 36.0608 40.0066C35.9497 40.7938 35.8938 41.5861 35.912 42.3824C35.9139 42.4675 35.9152 42.5546 35.9048 42.6391C35.8652 42.9641 35.6279 43.1877 35.3237 43.1923C35 43.1975 34.7316 42.9726 34.7231 42.6248C34.6471 39.447 35.2938 36.4992 37.4882 34.0526C38.9546 32.4172 40.8039 31.3753 42.8306 30.6102C44.2027 30.0922 45.6366 29.7555 46.9815 29.1542C49.5678 27.9979 51.8136 26.4262 53.3424 23.9789C54.3453 22.3741 54.8848 20.6139 55.0571 18.7295C55.1637 17.5654 55.1168 16.411 54.9719 15.2566C54.9569 15.137 54.9687 15.0102 54.8478 14.8718C54.6651 15.1994 54.4649 15.5003 54.3219 15.8266C53.757 17.1175 52.7275 17.8247 51.421 18.2115C50.041 18.6203 48.6227 18.7893 47.1953 18.9005C45.1095 19.063 43.0184 19.0324 40.9287 19.061C39.433 19.0818 38.0986 19.6707 36.8356 20.428C35.4108 21.2821 34.1453 22.3351 32.9922 23.5272C32.5385 23.9958 32.2843 23.9978 31.8293 23.533C30.452 22.1271 28.9394 20.8973 27.1812 19.9918C26.0586 19.414 24.8795 19.0409 23.5997 19.0493C21.9123 19.061 20.2249 19.0695 18.5401 18.9655C16.8319 18.8595 15.1269 18.7185 13.4714 18.2329C12.2013 17.8605 11.1359 17.2391 10.5678 15.967C10.4437 15.6888 10.2831 15.4262 10.1343 15.1597C10.0836 15.0668 10.0686 14.9459 9.92432 14.8822Z" fill="white"/>
<path d="M41.4534 44.0937C41.4541 42.3081 41.4528 40.5232 41.4547 38.7377C41.4554 38.1325 41.638 37.9551 42.2471 37.957C45.6446 37.9674 48.7497 40.6656 49.2664 44.058C49.8872 48.1322 47.306 51.7507 43.2461 52.4976C39.2194 53.2379 35.1796 50.2083 34.774 46.1425C34.7513 45.9118 34.7188 45.681 34.7168 45.4496C34.7129 44.9751 34.9482 44.6761 35.3083 44.6716C35.6821 44.6664 35.9011 44.94 35.9141 45.4282C35.9869 48.1315 37.8791 50.5138 40.4888 51.1865C44.0749 52.1115 47.6369 49.711 48.1237 46.0398C48.5495 42.8288 46.2303 39.7101 43.0791 39.2239C42.6923 39.1641 42.6527 39.2954 42.6533 39.6132C42.6611 42.8171 42.6585 46.021 42.6592 49.2242C42.6592 49.3587 42.665 49.4939 42.654 49.6278C42.6202 50.0302 42.3868 50.2596 42.0287 50.2512C41.6601 50.2427 41.4567 50.023 41.4554 49.5953C41.4508 47.7623 41.4528 45.928 41.4534 44.0937Z" fill="white"/>
<path d="M16.0288 48.2656C15.7837 48.6796 15.5764 49.1054 15.2995 49.4915C13.5055 51.9966 10.4323 53.1276 7.46956 52.3645C4.54521 51.6111 2.38396 49.108 2.04011 46.0738C2.01281 45.8313 1.98421 45.5869 1.98876 45.3438C1.99656 44.9532 2.25006 44.6776 2.57506 44.6711C2.92996 44.6639 3.16071 44.9239 3.18346 45.349C3.30696 47.7059 4.36971 49.4941 6.43216 50.6615C9.95321 52.6537 14.6638 50.3969 15.3333 46.4059C15.3879 46.079 15.41 45.7514 15.4262 45.4218C15.4496 44.948 15.6609 44.6912 16.0197 44.6769C16.3811 44.6626 16.6183 44.8869 16.6437 45.3815C16.6905 46.285 16.8673 47.1489 17.2709 47.962C18.5137 50.4665 21.0916 51.5975 23.3848 51.3602C26.1194 51.0775 28.3573 49.0027 28.8156 46.2298C28.863 45.9412 28.8845 45.6474 28.9027 45.3549C28.9293 44.9259 29.149 44.6685 29.5052 44.6704C29.8426 44.6724 30.1136 44.9655 30.1019 45.3724C30.0792 46.1576 29.9531 46.9279 29.6905 47.6721C28.5829 50.8071 25.5721 52.8364 22.2597 52.5751C19.5784 52.3632 17.5764 51.0177 16.2725 48.6536C16.203 48.5288 16.1718 48.3787 16.0288 48.2656Z" fill="white"/>
<path d="M55.3221 52.5998C53.2934 52.5276 51.2986 51.5702 49.8127 49.6033C49.6762 49.4226 49.5709 49.2347 49.6066 48.9975C49.643 48.7583 49.773 48.5971 50.0064 48.5217C50.2917 48.4294 50.516 48.534 50.6824 48.757C51.034 49.2295 51.413 49.6748 51.8842 50.0336C53.7426 51.4486 55.7907 51.8159 57.9604 50.9468C60.2101 50.0459 61.4854 48.3234 61.7993 45.9087C61.826 45.7033 61.8416 45.4959 61.8572 45.2892C61.8851 44.9174 62.1165 44.6737 62.4493 44.6704C62.762 44.6672 63.0369 44.9278 63.0493 45.2918C63.0649 45.7683 62.9979 46.2428 62.9063 46.7101C62.2355 50.1077 59.2078 52.5933 55.3221 52.5998Z" fill="white"/>
</svg>
