<svg width="19" height="19" viewBox="0 0 19 19" fill="none" xmlns="http://www.w3.org/2000/svg">
<g clip-path="url(#clip0_591_141)">
<path d="M18.3315 10.9988C18.8983 6.22745 18.0591 3.21516 16.5455 1.8527L16.5463 1.85191C14.1032 -0.474797 5.85243 -0.819172 2.9296 1.95641C1.61701 3.31412 1.15468 5.30674 1.10401 7.77358C1.05335 10.2412 0.993179 14.8637 5.30064 16.1177H5.30459L5.30064 18.0328C5.30064 18.0328 5.27135 18.8086 5.76693 18.9646C6.33376 19.1482 6.59026 18.788 8.3533 16.6822C11.3015 16.9379 13.5656 16.3521 13.8229 16.2666C14.4183 16.0671 17.7868 15.6214 18.3315 10.9988ZM8.64385 15.3348C8.64385 15.3348 6.77789 17.6615 6.1976 18.2655C6.0076 18.4619 5.79939 18.4437 5.80255 18.0542C5.80255 17.7985 5.8168 14.8748 5.8168 14.8748C2.16485 13.8282 2.38018 9.89208 2.41976 7.83295C2.45935 5.77304 2.83618 4.08599 3.94768 2.94995C6.51189 0.545661 13.7453 1.0832 15.5883 2.81537C17.8414 4.81274 17.0395 10.4557 17.0442 10.6481C16.5811 14.5067 13.8514 14.7513 13.3495 14.9184C13.135 14.9896 11.1439 15.5018 8.64385 15.3348Z" fill="white"/>
<path d="M9.67586 3.40186C9.37107 3.40186 9.37107 3.87686 9.67586 3.88081C12.0406 3.89902 13.9881 5.54727 14.0094 8.57065C14.0094 8.88969 14.4765 8.88573 14.4726 8.56669H14.4718C14.4464 5.30898 12.32 3.42006 9.67586 3.40186Z" fill="white"/>
<path d="M12.7866 8.06949C12.7794 8.38457 13.2457 8.39961 13.2497 8.08057C13.2885 6.28428 12.1809 4.80465 10.0997 4.6487C9.79486 4.62653 9.76319 5.10549 10.0672 5.12765C11.8722 5.26461 12.823 6.49644 12.7866 8.06949Z" fill="white"/>
<path d="M12.2876 10.1129C11.8965 9.8865 11.4983 10.0274 11.3336 10.2499L10.9893 10.6956C10.8143 10.922 10.4873 10.8919 10.4873 10.8919C8.10125 10.261 7.46317 7.76404 7.46317 7.76404C7.46317 7.76404 7.43388 7.426 7.65238 7.24471L8.08305 6.88846C8.29838 6.71746 8.43455 6.30579 8.21525 5.90125C7.62942 4.84279 7.23596 4.47783 7.03567 4.19758C6.82509 3.93396 6.50842 3.87458 6.17909 4.05271H6.17196C5.48717 4.45329 4.73746 5.203 4.97734 5.97487C5.38663 6.78871 6.13871 9.383 8.53588 11.3432C9.66242 12.2702 11.4453 13.2202 12.2021 13.4395L12.2092 13.4506C12.955 13.6992 13.6801 12.9202 14.0673 12.2148V12.2092C14.239 11.868 14.182 11.545 13.9311 11.3337C13.4862 10.8998 12.8148 10.4209 12.2876 10.1129Z" fill="white"/>
<path d="M10.4256 6.4155C11.1864 6.45983 11.5553 6.85725 11.5949 7.67346C11.6091 7.9925 12.0722 7.97034 12.058 7.65129C12.0073 6.58571 11.4516 5.99196 10.4509 5.93654C10.1461 5.91833 10.1176 6.39729 10.4256 6.4155Z" fill="white"/>
</g>
<defs>
<clipPath id="clip0_591_141">
<rect width="19" height="19" fill="white"/>
</clipPath>
</defs>
</svg>
